<?xml version="1.0" encoding="UTF-8"?>
<!DOCTYPE svg PUBLIC "-//W3C//DTD SVG 1.1//EN" "http://www.w3.org/Graphics/SVG/1.1/DTD/svg11.dtd">
<svg xmlns="http://www.w3.org/2000/svg" version="1.1" width="495px" height="134px" style="shape-rendering:geometricPrecision; text-rendering:geometricPrecision; image-rendering:optimizeQuality; fill-rule:evenodd; clip-rule:evenodd" xmlns:xlink="http://www.w3.org/1999/xlink">
<g><path style="opacity:1" fill="#fefefe" d="M -0.5,-0.5 C 164.5,-0.5 329.5,-0.5 494.5,-0.5C 494.5,44.1667 494.5,88.8333 494.5,133.5C 329.5,133.5 164.5,133.5 -0.5,133.5C -0.5,88.8333 -0.5,44.1667 -0.5,-0.5 Z"/></g>
<g><path style="opacity:1" fill="#e4da8a" d="M 96.5,4.5 C 92.752,6.0918 88.752,6.92514 84.5,7C 85.448,7.48278 86.448,7.64945 87.5,7.5C 77.5986,8.46621 68.2652,11.4662 59.5,16.5C 57.8333,16.5 56.1667,16.5 54.5,16.5C 66.8865,6.59032 80.8865,2.59032 96.5,4.5 Z"/></g>
<g><path style="opacity:1" fill="#faf9f3" d="M 87.5,7.5 C 101.152,7.36981 113.652,11.0365 125,18.5C 125.688,19.3317 125.521,19.9984 124.5,20.5C 120.5,23.5 116.5,26.5 112.5,29.5C 109.686,27.8954 106.686,26.8954 103.5,26.5C 91.8131,23.0067 80.4798,24.1734 69.5,30C 67.3825,31.0491 65.7158,32.5491 64.5,34.5C 62.2843,35.2026 60.451,36.5359 59,38.5C 56.5738,41.6912 54.4072,45.0246 52.5,48.5C 49.0507,57.4374 47.5507,66.7708 48,76.5C 43.6667,80.1667 39.3333,83.8333 35,87.5C 32.8228,77.2897 31.9895,66.9564 32.5,56.5C 36.5179,39.7958 45.5179,26.4624 59.5,16.5C 68.2652,11.4662 77.5986,8.46621 87.5,7.5 Z"/></g>
<g><path style="opacity:1" fill="#faf9f4" d="M 141.5,13.5 C 147.164,20.5114 152.497,27.8448 157.5,35.5C 156.807,36.5178 156.141,37.5178 155.5,38.5C 153.596,38.7376 152.262,39.7376 151.5,41.5C 142.982,47.2576 134.648,53.2576 126.5,59.5C 111.95,69.9347 97.6167,80.6014 83.5,91.5C 69.2924,100.77 55.6257,110.77 42.5,121.5C 41.8333,121.5 41.1667,121.5 40.5,121.5C 36.1799,114.21 31.3466,107.21 26,100.5C 25.7003,98.9343 26.2003,97.601 27.5,96.5C 29.0269,96.573 30.0269,95.9063 30.5,94.5C 38.4719,89.1874 46.1386,83.5208 53.5,77.5C 57.7363,75.5551 61.4029,72.8884 64.5,69.5C 85.5614,54.6425 106.228,39.3091 126.5,23.5C 128.027,23.573 129.027,22.9063 129.5,21.5C 133.5,18.8333 137.5,16.1667 141.5,13.5 Z"/></g>
<g><path style="opacity:1" fill="#d5c559" d="M 160.5,32.5 C 160.539,33.5832 160.873,34.5832 161.5,35.5C 159.711,37.0332 157.711,38.0332 155.5,38.5C 156.141,37.5178 156.807,36.5178 157.5,35.5C 152.497,27.8448 147.164,20.5114 141.5,13.5C 139.95,13.5079 138.283,13.1746 136.5,12.5C 138.059,10.3757 140.059,8.70899 142.5,7.5C 148.764,15.7154 154.764,24.0488 160.5,32.5 Z"/></g>
<g><path style="opacity:1" fill="#e5da84" d="M 81.5,10.5 C 82.5,10.5 83.5,10.5 84.5,10.5C 84.3354,13.5184 84.502,16.5184 85,19.5C 87.4763,21.0628 88.9763,20.3962 89.5,17.5C 88.7766,15.2178 88.4433,12.8845 88.5,10.5C 89.5,10.5 90.5,10.5 91.5,10.5C 91.6653,14.1817 91.4986,17.8484 91,21.5C 88.3333,22.8333 85.6667,22.8333 83,21.5C 81.7633,17.9399 81.2633,14.2733 81.5,10.5 Z"/></g>
<g><path style="opacity:1" fill="#e1d681" d="M 72.5,13.5 C 73.4959,13.4142 74.3292,13.7476 75,14.5C 75.9749,17.7603 77.1416,20.927 78.5,24C 77.9747,24.6924 77.3081,25.1924 76.5,25.5C 74.1722,21.85 72.8389,17.85 72.5,13.5 Z"/></g>
<g><path style="opacity:1" fill="#ded37e" d="M 100.5,10.5 C 101.708,11.2341 103.041,11.5674 104.5,11.5C 103.906,19.1018 105.24,19.4351 108.5,12.5C 109.902,12.8655 110.902,13.6988 111.5,15C 110.847,18.7957 109.514,22.2957 107.5,25.5C 107.167,24.8333 106.833,24.1667 106.5,23.5C 107.043,22.1362 107.21,20.8029 107,19.5C 103.22,26.2943 101.22,25.6276 101,17.5C 100.727,19.1012 100.227,20.6012 99.5,22C 98.3999,22.4317 97.7332,21.9317 97.5,20.5C 98.507,17.1318 99.507,13.7985 100.5,10.5 Z"/></g>
<g><path style="opacity:1" fill="#a0905c" d="M 129.5,21.5 C 129.027,22.9063 128.027,23.573 126.5,23.5C 126.973,22.0937 127.973,21.427 129.5,21.5 Z"/></g>
<g><path style="opacity:1" fill="#e1d682" d="M 63.5,16.5 C 66.1837,19.3494 68.517,22.516 70.5,26C 69.3521,27.726 68.1855,27.5593 67,25.5C 66.3162,26.7839 66.4829,27.9505 67.5,29C 66.9747,29.6924 66.3081,30.1924 65.5,30.5C 60.1878,26.3152 59.5211,26.8152 63.5,32C 63,32.5 62.5,33 62,33.5C 59.5,30.3333 57,27.1667 54.5,24C 56.912,20.838 59.2454,21.0047 61.5,24.5C 62.5472,23.0777 62.5472,21.5777 61.5,20C 61.9783,18.6974 62.645,17.5307 63.5,16.5 Z"/></g>
<g><path style="opacity:1" fill="#c2b257" d="M 85.5,27.5 C 85.5,27.8333 85.5,28.1667 85.5,28.5C 81.3852,29.0949 77.3852,30.0949 73.5,31.5C 76.7744,28.3399 80.7744,27.0066 85.5,27.5 Z"/></g>
<g><path style="opacity:1" fill="#b3a162" d="M 85.5,28.5 C 85.5,28.1667 85.5,27.8333 85.5,27.5C 85.8333,27.5 86.1667,27.5 86.5,27.5C 91.1785,27.3342 95.8452,27.5008 100.5,28C 101.737,28.2321 102.737,28.7321 103.5,29.5C 97.5362,28.6932 91.5362,28.3599 85.5,28.5 Z"/></g>
<g><path style="opacity:1" fill="#fcfcf9" d="M 85.5,28.5 C 91.5362,28.3599 97.5362,28.6932 103.5,29.5C 105.019,30.4098 106.685,31.2432 108.5,32C 92.3154,44.0301 76.3154,56.1968 60.5,68.5C 57.8996,69.9188 55.3996,71.5854 53,73.5C 51.8707,65.5846 52.704,57.9179 55.5,50.5C 60.1212,42.8783 66.1212,36.5449 73.5,31.5C 77.3852,30.0949 81.3852,29.0949 85.5,28.5 Z"/></g>
<g><path style="opacity:1" fill="#d6c969" d="M 96.5,4.5 C 108.665,5.33247 119.665,9.33247 129.5,16.5C 131.868,15.1111 134.201,13.7778 136.5,12.5C 138.283,13.1746 139.95,13.5079 141.5,13.5C 137.5,16.1667 133.5,18.8333 129.5,21.5C 127.973,21.427 126.973,22.0937 126.5,23.5C 106.228,39.3091 85.5614,54.6425 64.5,69.5C 63.5041,69.4142 62.6708,69.7476 62,70.5C 61.7216,69.5842 61.2216,68.9175 60.5,68.5C 76.3154,56.1968 92.3154,44.0301 108.5,32C 106.685,31.2432 105.019,30.4098 103.5,29.5C 102.737,28.7321 101.737,28.2321 100.5,28C 95.8452,27.5008 91.1785,27.3342 86.5,27.5C 91.9753,26.5111 97.642,26.1778 103.5,26.5C 106.686,26.8954 109.686,27.8954 112.5,29.5C 116.5,26.5 120.5,23.5 124.5,20.5C 125.521,19.9984 125.688,19.3317 125,18.5C 113.652,11.0365 101.152,7.36981 87.5,7.5C 86.448,7.64945 85.448,7.48278 84.5,7C 88.752,6.92514 92.752,6.0918 96.5,4.5 Z"/></g>
<g><path style="opacity:1" fill="#efe78a" d="M 103.5,26.5 C 97.642,26.1778 91.9753,26.5111 86.5,27.5C 86.1667,27.5 85.8333,27.5 85.5,27.5C 80.7744,27.0066 76.7744,28.3399 73.5,31.5C 70.3816,32.2301 67.3816,33.2301 64.5,34.5C 65.7158,32.5491 67.3825,31.0491 69.5,30C 80.4798,24.1734 91.8131,23.0067 103.5,26.5 Z"/></g>
<g><path style="opacity:1" fill="#a28d30" d="M 138.5,27.5 C 139.756,29.7257 139.756,32.059 138.5,34.5C 138.135,32.412 138.135,30.0787 138.5,27.5 Z"/></g>
<g><path style="opacity:1" fill="#dace80" d="M 82.5,32.5 C 84.9582,32.2275 86.6249,33.2275 87.5,35.5C 86.065,37.4011 84.3983,37.7345 82.5,36.5C 81.7084,35.3002 81.7084,33.9669 82.5,32.5 Z"/></g>
<g><path style="opacity:1" fill="#d4c77d" d="M 97.5,31.5 C 100.172,34.11 99.8385,36.11 96.5,37.5C 95.3279,37.0814 94.3279,36.4147 93.5,35.5C 94.3681,33.603 95.7014,32.2696 97.5,31.5 Z"/></g>
<g><path style="opacity:1" fill="#d8ca67" d="M 54.5,16.5 C 56.1667,16.5 57.8333,16.5 59.5,16.5C 45.5179,26.4624 36.5179,39.7958 32.5,56.5C 32.2914,55.0783 31.7914,53.745 31,52.5C 30.8442,55.1909 30.0109,57.5242 28.5,59.5C 31.1711,42.3278 39.1711,28.1611 52.5,17C 53.0944,16.5357 53.7611,16.369 54.5,16.5 Z"/></g>
<g><path style="opacity:1" fill="#d9cc6f" d="M 47.5,29.5 C 48.7562,29.4614 49.7562,29.9614 50.5,31C 48.4372,32.5716 47.7706,34.405 48.5,36.5C 49.8924,35.3947 51.059,34.0614 52,32.5C 52.6924,33.0253 53.1924,33.6919 53.5,34.5C 52.5,35.8333 51.5,37.1667 50.5,38.5C 53.2418,39.4995 55.2418,38.4995 56.5,35.5C 57.3081,35.8076 57.9747,36.3076 58.5,37C 56.607,39.3031 54.607,41.4698 52.5,43.5C 49.1897,41.5179 46.1897,39.1846 43.5,36.5C 45.11,34.2746 46.4434,31.9413 47.5,29.5 Z"/></g>
<g><path style="opacity:1" fill="#d0c055" d="M 138.5,27.5 C 138.135,30.0787 138.135,32.412 138.5,34.5C 141.85,34.5056 144.85,35.5056 147.5,37.5C 146.564,38.9744 145.23,39.9744 143.5,40.5C 141.55,39.6279 139.55,38.9612 137.5,38.5C 135.965,37.2121 134.299,37.2121 132.5,38.5C 132.624,39.1067 132.957,39.44 133.5,39.5C 134.368,41.4021 135.368,43.2355 136.5,45C 136.333,46.5 135.5,47.3333 134,47.5C 129.811,42.9741 125.977,38.1408 122.5,33C 125.833,30.3333 129.167,27.6667 132.5,25C 135.294,24.0276 137.294,24.8609 138.5,27.5 Z"/></g>
<g><path style="opacity:1" fill="#f8f7f0" d="M 131.5,29.5 C 132.833,29.5 134.167,29.5 135.5,29.5C 135.657,30.8734 135.49,32.2068 135,33.5C 133.488,34.2567 132.154,35.2567 131,36.5C 130.044,35.4214 129.211,34.2547 128.5,33C 129.71,31.9609 130.71,30.7942 131.5,29.5 Z"/></g>
<g><path style="opacity:1" fill="#b8ad8a" d="M 137.5,38.5 C 135.901,38.2322 134.568,38.5655 133.5,39.5C 132.957,39.44 132.624,39.1067 132.5,38.5C 134.299,37.2121 135.965,37.2121 137.5,38.5 Z"/></g>
<g><path style="opacity:1" fill="#ded27b" d="M 69.5,37.5 C 70.9403,38.3629 72.2736,38.3629 73.5,37.5C 74.2283,39.1932 75.2283,40.6932 76.5,42C 74.1517,42.1102 72.6517,43.2769 72,45.5C 71.3483,43.2769 69.8483,42.1102 67.5,42C 69.0368,40.8904 69.7035,39.3904 69.5,37.5 Z"/></g>
<g><path style="opacity:1" fill="#9d8d58" d="M 118.5,39.5 C 118.027,40.9063 117.027,41.573 115.5,41.5C 115.973,40.0937 116.973,39.427 118.5,39.5 Z"/></g>
<g><path style="opacity:1" fill="#b7a646" d="M 160.5,32.5 C 161.837,33.3149 162.837,34.4815 163.5,36C 159.667,39.1667 155.833,42.3333 152,45.5C 151.982,47.7972 152.149,50.1305 152.5,52.5C 151.33,50.3498 150.33,48.0164 149.5,45.5C 151.796,44.6317 152.463,43.2984 151.5,41.5C 152.262,39.7376 153.596,38.7376 155.5,38.5C 157.711,38.0332 159.711,37.0332 161.5,35.5C 160.873,34.5832 160.539,33.5832 160.5,32.5 Z"/></g>
<g><path style="opacity:1" fill="#d9cb6c" d="M 73.5,31.5 C 66.1212,36.5449 60.1212,42.8783 55.5,50.5C 55.1788,48.9519 54.1788,48.2852 52.5,48.5C 54.4072,45.0246 56.5738,41.6912 59,38.5C 60.451,36.5359 62.2843,35.2026 64.5,34.5C 67.3816,33.2301 70.3816,32.2301 73.5,31.5 Z"/></g>
<g><path style="opacity:1" fill="#ccbc54" d="M 118.5,39.5 C 116.973,39.427 115.973,40.0937 115.5,41.5C 114.77,42.7124 113.77,43.7124 112.5,44.5C 113.145,45.646 113.978,46.646 115,47.5C 117.364,45.6372 119.864,43.9705 122.5,42.5C 122.833,43 123.167,43.5 123.5,44C 122.256,46.3817 120.423,48.215 118,49.5C 117.278,51.6614 117.945,53.328 120,54.5C 122.695,52.3056 125.528,50.3056 128.5,48.5C 128.833,49 129.167,49.5 129.5,50C 126.311,53.8479 122.477,57.0146 118,59.5C 114.167,54.5 110.333,49.5 106.5,44.5C 110.5,41.5 114.5,38.5 118.5,35.5C 120.879,37.1048 120.879,38.4381 118.5,39.5 Z"/></g>
<g><path style="opacity:1" fill="#f9f8f2" d="M 146.5,48.5 C 147.497,48.4701 148.164,48.9701 148.5,50C 150.254,58.0609 150.92,66.2276 150.5,74.5C 147.878,97.6224 135.878,113.789 114.5,123C 110.571,124.477 106.571,125.644 102.5,126.5C 85.6828,129.304 70.3495,125.804 56.5,116C 60.7848,111.711 65.6181,108.211 71,105.5C 72.1385,105.989 73.3052,106.322 74.5,106.5C 83.268,110.783 92.268,111.449 101.5,108.5C 103.898,108.741 105.898,108.074 107.5,106.5C 119.567,102.099 127.567,93.766 131.5,81.5C 132.621,79.0458 133.454,76.3791 134,73.5C 134.212,67.7521 134.712,62.0855 135.5,56.5C 137.027,56.573 138.027,55.9063 138.5,54.5C 140.754,53.8763 142.421,52.543 143.5,50.5C 145.027,50.573 146.027,49.9063 146.5,48.5 Z"/></g>
<g><path style="opacity:1" fill="#cbba52" d="M 151.5,41.5 C 152.463,43.2984 151.796,44.6317 149.5,45.5C 150.33,48.0164 151.33,50.3498 152.5,52.5C 154.686,59.8382 155.02,67.1715 153.5,74.5C 152.5,74.5 151.5,74.5 150.5,74.5C 150.92,66.2276 150.254,58.0609 148.5,50C 148.164,48.9701 147.497,48.4701 146.5,48.5C 144.973,48.427 143.973,49.0937 143.5,50.5C 142.421,52.543 140.754,53.8763 138.5,54.5C 136.973,54.427 135.973,55.0937 135.5,56.5C 134.712,62.0855 134.212,67.7521 134,73.5C 133.454,76.3791 132.621,79.0458 131.5,81.5C 130.167,82.1667 128.833,82.8333 127.5,83.5C 129.927,76.3858 130.927,69.0525 130.5,61.5C 130.611,60.8826 130.944,60.3826 131.5,60C 129.866,59.5065 128.199,59.3398 126.5,59.5C 134.648,53.2576 142.982,47.2576 151.5,41.5 Z"/></g>
<g><path style="opacity:1" fill="#92824e" d="M 146.5,48.5 C 146.027,49.9063 145.027,50.573 143.5,50.5C 143.973,49.0937 144.973,48.427 146.5,48.5 Z"/></g>
<g><path style="opacity:1" fill="#ccbd6a" d="M 60.5,48.5 C 61.8333,48.5 63.1667,48.5 64.5,48.5C 64.33,49.8221 64.6634,50.9887 65.5,52C 61.1349,54.1684 59.4682,53.0017 60.5,48.5 Z"/></g>
<g><path style="opacity:1" fill="#d1c263" d="M 38.5,45.5 C 41.5959,44.9066 43.9292,45.9066 45.5,48.5C 47.0709,47.6906 48.7376,47.3573 50.5,47.5C 50.5,48.5 50.5,49.5 50.5,50.5C 47.0306,49.8872 45.0306,51.2206 44.5,54.5C 45.9778,54.238 47.3112,54.5713 48.5,55.5C 48.1667,56.5 47.5,57.1667 46.5,57.5C 43.1941,56.4549 40.0274,55.1216 37,53.5C 36.9552,50.7804 37.4552,48.1138 38.5,45.5 Z"/></g>
<g><path style="opacity:1" fill="#f8f6ef" d="M 40.5,48.5 C 43.0414,49.6228 43.0414,50.9561 40.5,52.5C 39.3744,51.1916 39.3744,49.8583 40.5,48.5 Z"/></g>
<g><path style="opacity:1" fill="#9d9e9f" d="M 179.5,52.5 C 181.607,51.5318 183.941,51.1984 186.5,51.5C 186.828,63.6783 186.495,75.6783 185.5,87.5C 185.5,75.8333 185.5,64.1667 185.5,52.5C 183.5,52.5 181.5,52.5 179.5,52.5 Z"/></g>
<g><path style="opacity:1" fill="#8c8d8f" d="M 216.5,52.5 C 214.5,52.5 212.5,52.5 210.5,52.5C 210.5,64.1667 210.5,75.8333 210.5,87.5C 209.505,75.6783 209.172,63.6783 209.5,51.5C 212.059,51.1984 214.393,51.5318 216.5,52.5 Z"/></g>
<g><path style="opacity:1" fill="#707173" d="M 216.5,52.5 C 218.336,56.1712 220.169,59.8379 222,63.5C 223.847,59.8068 225.68,56.1401 227.5,52.5C 229.5,52.5 231.5,52.5 233.5,52.5C 233.5,64.1667 233.5,75.8333 233.5,87.5C 231.5,87.5 229.5,87.5 227.5,87.5C 227.666,81.4908 227.499,75.4908 227,69.5C 225.333,72.8333 223.667,76.1667 222,79.5C 220.333,76.1667 218.667,72.8333 217,69.5C 216.501,75.4908 216.334,81.4908 216.5,87.5C 214.5,87.5 212.5,87.5 210.5,87.5C 210.5,75.8333 210.5,64.1667 210.5,52.5C 212.5,52.5 214.5,52.5 216.5,52.5 Z"/></g>
<g><path style="opacity:1" fill="#909092" d="M 227.5,52.5 C 229.607,51.5318 231.941,51.1984 234.5,51.5C 234.828,63.6783 234.495,75.6783 233.5,87.5C 233.5,75.8333 233.5,64.1667 233.5,52.5C 231.5,52.5 229.5,52.5 227.5,52.5 Z"/></g>
<g><path style="opacity:1" fill="#717273" d="M 237.5,52.5 C 243.176,52.3339 248.843,52.5006 254.5,53C 256.995,55.2187 257.995,58.052 257.5,61.5C 257.681,64.5979 257.015,67.4312 255.5,70C 257.509,74.5911 258.009,79.4245 257,84.5C 256.097,85.7014 254.931,86.5348 253.5,87C 248.177,87.4994 242.844,87.666 237.5,87.5C 237.5,75.8333 237.5,64.1667 237.5,52.5 Z"/></g>
<g><path style="opacity:1" fill="#6f7072" d="M 275.5,66.5 C 275.5,68.5 275.5,70.5 275.5,72.5C 272.615,72.1936 269.948,72.5269 267.5,73.5C 266.527,75.9479 266.194,78.6146 266.5,81.5C 270.167,81.5 273.833,81.5 277.5,81.5C 277.5,83.5 277.5,85.5 277.5,87.5C 271.833,87.5 266.167,87.5 260.5,87.5C 260.5,75.8333 260.5,64.1667 260.5,52.5C 266.167,52.5 271.833,52.5 277.5,52.5C 277.5,54.5 277.5,56.5 277.5,58.5C 274.167,58.5 270.833,58.5 267.5,58.5C 267.5,61.1667 267.5,63.8333 267.5,66.5C 270.167,66.5 272.833,66.5 275.5,66.5 Z"/></g>
<g><path style="opacity:1" fill="#aaabac" d="M 297.5,52.5 C 292.167,52.5 286.833,52.5 281.5,52.5C 281.5,64.1667 281.5,75.8333 281.5,87.5C 280.505,75.6783 280.172,63.6783 280.5,51.5C 286.358,51.1778 292.025,51.5111 297.5,52.5 Z"/></g>
<g><path style="opacity:1" fill="#6f7072" d="M 297.5,52.5 C 300.424,57.6525 301.257,63.3191 300,69.5C 298.647,70.6853 297.48,72.0186 296.5,73.5C 298.745,77.9835 300.411,82.6501 301.5,87.5C 299.167,87.5 296.833,87.5 294.5,87.5C 289.878,69.3156 287.544,69.3156 287.5,87.5C 285.5,87.5 283.5,87.5 281.5,87.5C 281.5,75.8333 281.5,64.1667 281.5,52.5C 286.833,52.5 292.167,52.5 297.5,52.5 Z"/></g>
<g><path style="opacity:1" fill="#757678" d="M 316.5,51.5 C 334.171,48.0062 340.671,55.0062 336,72.5C 332.329,75.1958 328.162,76.1958 323.5,75.5C 323.5,79.5 323.5,83.5 323.5,87.5C 321.167,87.5 318.833,87.5 316.5,87.5C 316.5,75.5 316.5,63.5 316.5,51.5 Z"/></g>
<g><path style="opacity:1" fill="#737476" d="M 339.5,51.5 C 355.64,47.4792 362.14,53.4792 359,69.5C 357.647,70.6853 356.48,72.0186 355.5,73.5C 356.97,77.9117 358.637,82.245 360.5,86.5C 358.167,87.8333 355.833,87.8333 353.5,86.5C 348.202,69.0087 345.868,69.342 346.5,87.5C 344.167,87.5 341.833,87.5 339.5,87.5C 339.5,75.5 339.5,63.5 339.5,51.5 Z"/></g>
<g><path style="opacity:1" fill="#b0b0b1" d="M 380.5,58.5 C 380.5,56.5 380.5,54.5 380.5,52.5C 375.167,52.5 369.833,52.5 364.5,52.5C 364.5,64.1667 364.5,75.8333 364.5,87.5C 363.505,75.6783 363.172,63.6783 363.5,51.5C 369.5,51.5 375.5,51.5 381.5,51.5C 381.802,54.0593 381.468,56.3926 380.5,58.5 Z"/></g>
<g><path style="opacity:1" fill="#6e6f71" d="M 380.5,58.5 C 377.167,58.5 373.833,58.5 370.5,58.5C 370.5,61.1667 370.5,63.8333 370.5,66.5C 373.5,66.5 376.5,66.5 379.5,66.5C 379.5,68.8333 379.5,71.1667 379.5,73.5C 376.5,73.5 373.5,73.5 370.5,73.5C 370.5,75.8333 370.5,78.1667 370.5,80.5C 373.625,81.4794 376.958,81.8128 380.5,81.5C 380.5,83.5 380.5,85.5 380.5,87.5C 375.167,87.5 369.833,87.5 364.5,87.5C 364.5,75.8333 364.5,64.1667 364.5,52.5C 369.833,52.5 375.167,52.5 380.5,52.5C 380.5,54.5 380.5,56.5 380.5,58.5 Z"/></g>
<g><path style="opacity:1" fill="#d6d6d7" d="M 391.5,52.5 C 389.167,52.5 386.833,52.5 384.5,52.5C 384.5,64.1667 384.5,75.8333 384.5,87.5C 383.505,75.6783 383.172,63.6783 383.5,51.5C 386.385,51.1936 389.052,51.5269 391.5,52.5 Z"/></g>
<g><path style="opacity:1" fill="#6e6f71" d="M 391.5,52.5 C 392.886,56.2728 394.552,59.9394 396.5,63.5C 398.27,59.6203 400.27,55.9536 402.5,52.5C 404.5,52.5 406.5,52.5 408.5,52.5C 408.5,64.1667 408.5,75.8333 408.5,87.5C 406.5,87.5 404.5,87.5 402.5,87.5C 402.666,81.1579 402.5,74.8246 402,68.5C 400.421,71.9939 398.587,75.3272 396.5,78.5C 394.626,76.0855 393.293,73.4188 392.5,70.5C 392.217,69.7109 391.717,69.0442 391,68.5C 390.5,74.8246 390.334,81.1579 390.5,87.5C 388.5,87.5 386.5,87.5 384.5,87.5C 384.5,75.8333 384.5,64.1667 384.5,52.5C 386.833,52.5 389.167,52.5 391.5,52.5 Z"/></g>
<g><path style="opacity:1" fill="#bebfc0" d="M 402.5,52.5 C 404.607,51.5318 406.941,51.1984 409.5,51.5C 409.828,63.6783 409.495,75.6783 408.5,87.5C 408.5,75.8333 408.5,64.1667 408.5,52.5C 406.5,52.5 404.5,52.5 402.5,52.5 Z"/></g>
<g><path style="opacity:1" fill="#c1c1c2" d="M 418.5,52.5 C 416.5,52.5 414.5,52.5 412.5,52.5C 412.5,64.1667 412.5,75.8333 412.5,87.5C 411.505,75.6783 411.172,63.6783 411.5,51.5C 414.059,51.1984 416.393,51.5318 418.5,52.5 Z"/></g>
<g><path style="opacity:1" fill="#6d6e70" d="M 418.5,52.5 C 418.5,64.1667 418.5,75.8333 418.5,87.5C 416.5,87.5 414.5,87.5 412.5,87.5C 412.5,75.8333 412.5,64.1667 412.5,52.5C 414.5,52.5 416.5,52.5 418.5,52.5 Z"/></g>
<g><path style="opacity:1" fill="#a3a4a5" d="M 428.5,52.5 C 426.5,52.5 424.5,52.5 422.5,52.5C 422.5,63.1667 422.5,73.8333 422.5,84.5C 421.505,73.6794 421.172,62.6794 421.5,51.5C 424.059,51.1984 426.393,51.5318 428.5,52.5 Z"/></g>
<g><path style="opacity:1" fill="#6f7072" d="M 428.5,52.5 C 428.5,61.8333 428.5,71.1667 428.5,80.5C 430.948,81.4731 433.615,81.8064 436.5,81.5C 436.5,71.8333 436.5,62.1667 436.5,52.5C 438.5,52.5 440.5,52.5 442.5,52.5C 442.667,63.1719 442.5,73.8385 442,84.5C 439.173,86.961 435.84,87.961 432,87.5C 428.246,87.9907 425.079,86.9907 422.5,84.5C 422.5,73.8333 422.5,63.1667 422.5,52.5C 424.5,52.5 426.5,52.5 428.5,52.5 Z"/></g>
<g><path style="opacity:1" fill="#a0a1a2" d="M 442.5,52.5 C 440.5,52.5 438.5,52.5 436.5,52.5C 436.5,62.1667 436.5,71.8333 436.5,81.5C 433.615,81.8064 430.948,81.4731 428.5,80.5C 430.833,80.5 433.167,80.5 435.5,80.5C 435.5,70.8333 435.5,61.1667 435.5,51.5C 438.059,51.1984 440.393,51.5318 442.5,52.5 Z"/></g>
<g><path style="opacity:1" fill="#707173" d="M 463.5,52.5 C 465.5,52.5 467.5,52.5 469.5,52.5C 469.5,64.1667 469.5,75.8333 469.5,87.5C 467.5,87.5 465.5,87.5 463.5,87.5C 463.666,81.1579 463.5,74.8246 463,68.5C 461.059,72.0477 459.393,75.7143 458,79.5C 456.214,76.2635 454.714,72.9302 453.5,69.5C 453.44,68.9569 453.107,68.6236 452.5,68.5C 451.504,74.7985 451.17,81.1318 451.5,87.5C 449.5,87.5 447.5,87.5 445.5,87.5C 445.5,75.5 445.5,63.5 445.5,51.5C 447.924,51.1924 450.257,51.5258 452.5,52.5C 454.244,56.2457 456.077,59.9123 458,63.5C 459.847,59.8068 461.68,56.1401 463.5,52.5 Z"/></g>
<g><path style="opacity:1" fill="#9d9e9f" d="M 463.5,52.5 C 465.607,51.5318 467.941,51.1984 470.5,51.5C 470.828,63.6783 470.495,75.6783 469.5,87.5C 469.5,75.8333 469.5,64.1667 469.5,52.5C 467.5,52.5 465.5,52.5 463.5,52.5 Z"/></g>
<g><path style="opacity:1" fill="#d4c55a" d="M 111.5,58.5 C 111.5,59.8333 111.5,61.1667 111.5,62.5C 110.041,62.4326 108.708,62.7659 107.5,63.5C 107.5,62.1667 107.5,60.8333 107.5,59.5C 105.708,59.366 104.042,59.6993 102.5,60.5C 101.504,60.4142 100.671,60.7476 100,61.5C 99.9219,63.6565 99.7552,65.6565 99.5,67.5C 98.3578,66.1738 97.0245,65.1738 95.5,64.5C 93.364,62.1877 91.364,59.6877 89.5,57C 93.1487,53.5942 97.3153,51.0942 102,49.5C 105.161,50.123 106.661,52.123 106.5,55.5C 108.933,55.2729 110.599,56.2729 111.5,58.5 Z"/></g>
<g><path style="opacity:1" fill="#6f7072" d="M 179.5,52.5 C 181.5,52.5 183.5,52.5 185.5,52.5C 185.5,64.1667 185.5,75.8333 185.5,87.5C 183.5,87.5 181.5,87.5 179.5,87.5C 179.666,81.1579 179.5,74.8246 179,68.5C 177.333,72.1667 175.667,75.8333 174,79.5C 172.214,76.2635 170.714,72.9302 169.5,69.5C 169.44,68.9569 169.107,68.6236 168.5,68.5C 167.504,74.7985 167.17,81.1318 167.5,87.5C 165.5,87.5 163.5,87.5 161.5,87.5C 161.5,75.5 161.5,63.5 161.5,51.5C 163.924,51.1924 166.257,51.5258 168.5,52.5C 169.86,56.4209 171.694,60.0875 174,63.5C 175.847,59.8068 177.68,56.1401 179.5,52.5 Z"/></g>
<g><path style="opacity:1" fill="#6d6e70" d="M 204.5,66.5 C 204.5,68.5 204.5,70.5 204.5,72.5C 201.5,72.5 198.5,72.5 195.5,72.5C 195.5,75.5 195.5,78.5 195.5,81.5C 199.167,81.5 202.833,81.5 206.5,81.5C 206.5,83.5 206.5,85.5 206.5,87.5C 200.833,87.5 195.167,87.5 189.5,87.5C 189.5,75.8333 189.5,64.1667 189.5,52.5C 195.167,52.5 200.833,52.5 206.5,52.5C 206.5,54.5 206.5,56.5 206.5,58.5C 202.833,58.5 199.167,58.5 195.5,58.5C 195.5,61.1667 195.5,63.8333 195.5,66.5C 198.5,66.5 201.5,66.5 204.5,66.5 Z"/></g>
<g><path style="opacity:1" fill="#cdbc53" d="M 52.5,48.5 C 54.1788,48.2852 55.1788,48.9519 55.5,50.5C 52.704,57.9179 51.8707,65.5846 53,73.5C 55.3996,71.5854 57.8996,69.9188 60.5,68.5C 60.0472,69.4584 59.3805,70.2917 58.5,71C 58.8333,71.3333 59.1667,71.6667 59.5,72C 57.1667,73 54.8333,74 52.5,75C 53.2524,75.6708 53.5858,76.5041 53.5,77.5C 46.1386,83.5208 38.4719,89.1874 30.5,94.5C 28.9731,94.427 27.9731,95.0937 27.5,96.5C 26.1266,96.3433 24.7932,96.51 23.5,97C 24.9928,98.1562 24.8261,98.9896 23,99.5C 21.8615,99.0109 20.6948,98.6775 19.5,98.5C 22.7365,95.2029 26.4031,92.3696 30.5,90C 31.0585,89.2753 31.3918,88.4419 31.5,87.5C 29.0103,78.3422 28.0103,69.0088 28.5,59.5C 30.0109,57.5242 30.8442,55.1909 31,52.5C 31.7914,53.745 32.2914,55.0783 32.5,56.5C 31.9895,66.9564 32.8228,77.2897 35,87.5C 39.3333,83.8333 43.6667,80.1667 48,76.5C 47.5507,66.7708 49.0507,57.4374 52.5,48.5 Z"/></g>
<g><path style="opacity:1" fill="#f8f6ed" d="M 99.5,53.5 C 101.252,53.4176 102.252,54.2509 102.5,56C 101.022,57.4782 99.5218,58.9782 98,60.5C 97.044,59.4214 96.2106,58.2547 95.5,57C 97.0931,56.0513 98.4264,54.8846 99.5,53.5 Z"/></g>
<g><path style="opacity:1" fill="#9b8c5b" d="M 138.5,54.5 C 138.027,55.9063 137.027,56.573 135.5,56.5C 135.973,55.0937 136.973,54.427 138.5,54.5 Z"/></g>
<g><path style="opacity:1" fill="#fbfbfb" d="M 244.5,58.5 C 246.5,58.5 248.5,58.5 250.5,58.5C 250.5,61.1667 250.5,63.8333 250.5,66.5C 248.5,66.5 246.5,66.5 244.5,66.5C 244.5,63.8333 244.5,61.1667 244.5,58.5 Z"/></g>
<g><path style="opacity:1" fill="#f9f9f9" d="M 287.5,58.5 C 289.833,58.5 292.167,58.5 294.5,58.5C 294.5,61.1667 294.5,63.8333 294.5,66.5C 292.167,66.5 289.833,66.5 287.5,66.5C 287.5,63.8333 287.5,61.1667 287.5,58.5 Z"/></g>
<g><path style="opacity:1" fill="#fdfdfd" d="M 323.5,58.5 C 325.5,58.5 327.5,58.5 329.5,58.5C 329.5,61.8333 329.5,65.1667 329.5,68.5C 327.5,68.5 325.5,68.5 323.5,68.5C 323.5,65.1667 323.5,61.8333 323.5,58.5 Z"/></g>
<g><path style="opacity:1" fill="#f3f3f3" d="M 346.5,58.5 C 348.833,58.5 351.167,58.5 353.5,58.5C 353.5,61.1667 353.5,63.8333 353.5,66.5C 351.167,66.5 348.833,66.5 346.5,66.5C 346.5,63.8333 346.5,61.1667 346.5,58.5 Z"/></g>
<g><path style="opacity:1" fill="#f9f7f1" d="M 107.5,63.5 C 106.102,65.1088 104.435,65.9421 102.5,66C 99.9824,64.1899 99.9824,62.3566 102.5,60.5C 104.042,59.6993 105.708,59.366 107.5,59.5C 107.5,60.8333 107.5,62.1667 107.5,63.5 Z"/></g>
<g><path style="opacity:1" fill="#c5b55a" d="M 59.5,59.5 C 60.3764,59.3691 61.0431,59.7025 61.5,60.5C 60.3595,61.4255 60.3595,62.2588 61.5,63C 60.6667,63.8333 59.8333,64.6667 59,65.5C 58.2276,64.1509 57.0609,63.3176 55.5,63C 57.0267,61.9681 58.36,60.8014 59.5,59.5 Z"/></g>
<g><path style="opacity:1" fill="#e1d67b" d="M 46.5,69.5 C 44.8333,69.5 43.1667,69.5 41.5,69.5C 41.1667,64.1667 40.8333,64.1667 40.5,69.5C 39.1667,69.5 37.8333,69.5 36.5,69.5C 36.2322,67.901 36.5655,66.5676 37.5,65.5C 37.281,66.675 37.6143,67.675 38.5,68.5C 39.4287,67.3112 39.762,65.9778 39.5,64.5C 38.5,63.8333 37.5,63.1667 36.5,62.5C 38.7569,61.1974 40.5902,61.864 42,64.5C 42.49,65.7932 42.6567,67.1266 42.5,68.5C 44.099,68.2322 45.4324,68.5655 46.5,69.5 Z"/></g>
<g><path style="opacity:1" fill="#fbfbf7" d="M 130.5,61.5 C 130.927,69.0525 129.927,76.3858 127.5,83.5C 124.33,91.6686 118.997,98.0019 111.5,102.5C 98.8593,108.745 86.1926,108.911 73.5,103C 75.6175,101.951 77.2842,100.451 78.5,98.5C 95.8333,86.1667 113.167,73.8333 130.5,61.5 Z"/></g>
<g><path style="opacity:1" fill="#f7f6f2" d="M 39.5,64.5 C 39.762,65.9778 39.4287,67.3112 38.5,68.5C 37.6143,67.675 37.281,66.675 37.5,65.5C 37.8417,64.6618 38.5084,64.3284 39.5,64.5 Z"/></g>
<g><path style="opacity:1" fill="#beae4f" d="M 111.5,58.5 C 112.613,59.9464 112.78,61.6131 112,63.5C 108.486,67.6248 104.32,69.9581 99.5,70.5C 97.7484,68.7541 96.4151,66.7541 95.5,64.5C 97.0245,65.1738 98.3578,66.1738 99.5,67.5C 99.7552,65.6565 99.9219,63.6565 100,61.5C 100.671,60.7476 101.504,60.4142 102.5,60.5C 99.9824,62.3566 99.9824,64.1899 102.5,66C 104.435,65.9421 106.102,65.1088 107.5,63.5C 108.708,62.7659 110.041,62.4326 111.5,62.5C 111.5,61.1667 111.5,59.8333 111.5,58.5 Z"/></g>
<g><path style="opacity:1" fill="#beab45" d="M 148.5,66.5 C 147.051,68.1644 145.051,68.9977 142.5,69C 143.094,69.4643 143.761,69.631 144.5,69.5C 147.259,69.9333 148.592,71.6 148.5,74.5C 139.167,74.8333 139.167,75.1667 148.5,75.5C 148.5,76.5 148.5,77.5 148.5,78.5C 144.5,78.1667 140.5,77.8333 136.5,77.5C 136.33,76.1779 136.663,75.0113 137.5,74C 146.712,73.0979 146.712,71.9312 137.5,70.5C 137.5,69.1667 137.5,67.8333 137.5,66.5C 141.167,66.5 144.833,66.5 148.5,66.5 Z"/></g>
<g><path style="opacity:1" fill="#c6b753" d="M 126.5,59.5 C 128.199,59.3398 129.866,59.5065 131.5,60C 130.944,60.3826 130.611,60.8826 130.5,61.5C 113.167,73.8333 95.8333,86.1667 78.5,98.5C 78.5,97.5 78.5,96.5 78.5,95.5C 80.9806,95.226 82.6473,93.8927 83.5,91.5C 97.6167,80.6014 111.95,69.9347 126.5,59.5 Z"/></g>
<g><path style="opacity:1" fill="#9f9264" d="M 148.5,66.5 C 149.404,67.209 149.737,68.209 149.5,69.5C 147.833,69.5 146.167,69.5 144.5,69.5C 143.761,69.631 143.094,69.4643 142.5,69C 145.051,68.9977 147.051,68.1644 148.5,66.5 Z"/></g>
<g><path style="opacity:1" fill="#a3a3a4" d="M 169.5,69.5 C 168.833,75.5 168.167,81.5 167.5,87.5C 167.17,81.1318 167.504,74.7985 168.5,68.5C 169.107,68.6236 169.44,68.9569 169.5,69.5 Z"/></g>
<g><path style="opacity:1" fill="#a4a5a6" d="M 453.5,69.5 C 452.833,75.5 452.167,81.5 451.5,87.5C 451.17,81.1318 451.504,74.7985 452.5,68.5C 453.107,68.6236 453.44,68.9569 453.5,69.5 Z"/></g>
<g><path style="opacity:1" fill="#c8b744" d="M 36.5,62.5 C 37.5,63.1667 38.5,63.8333 39.5,64.5C 38.5084,64.3284 37.8417,64.6618 37.5,65.5C 36.5655,66.5676 36.2322,67.901 36.5,69.5C 37.8333,69.5 39.1667,69.5 40.5,69.5C 40.8333,64.1667 41.1667,64.1667 41.5,69.5C 43.1667,69.5 44.8333,69.5 46.5,69.5C 46.5,69.8333 46.5,70.1667 46.5,70.5C 42.8333,70.5 39.1667,70.5 35.5,70.5C 35.5,68.1667 35.5,65.8333 35.5,63.5C 35.5,62.8333 35.8333,62.5 36.5,62.5 Z"/></g>
<g><path style="opacity:1" fill="#bbaa4d" d="M 60.5,68.5 C 61.2216,68.9175 61.7216,69.5842 62,70.5C 62.6708,69.7476 63.5041,69.4142 64.5,69.5C 61.4029,72.8884 57.7363,75.5551 53.5,77.5C 53.5858,76.5041 53.2524,75.6708 52.5,75C 54.8333,74 57.1667,73 59.5,72C 59.1667,71.6667 58.8333,71.3333 58.5,71C 59.3805,70.2917 60.0472,69.4584 60.5,68.5 Z"/></g>
<g><path style="opacity:1" fill="#cdbd52" d="M 84.5,60.5 C 86.371,60.8588 87.871,61.8588 89,63.5C 91.3045,67.3037 93.8045,70.9704 96.5,74.5C 95.8551,75.646 95.0217,76.646 94,77.5C 91.7632,75.3529 89.7632,73.0196 88,70.5C 88.4797,73.1645 89.313,75.8312 90.5,78.5C 90.5,80.5 89.5,81.5 87.5,81.5C 84.7624,80.2717 82.4291,78.4383 80.5,76C 79.8333,75.3333 79.1667,75.3333 78.5,76C 80.6201,78.4087 82.6201,80.9087 84.5,83.5C 83.8333,84.8333 82.8333,85.8333 81.5,86.5C 77.4471,81.7808 73.7804,76.7808 70.5,71.5C 72.0876,68.7429 74.421,67.9096 77.5,69C 79.7594,70.7146 81.9261,72.5479 84,74.5C 83.1725,70.8457 82.0059,67.1791 80.5,63.5C 81.9014,62.4793 83.2347,61.4793 84.5,60.5 Z"/></g>
<g><path style="opacity:1" fill="#c9caca" d="M 392.5,70.5 C 391.833,76.1667 391.167,81.8333 390.5,87.5C 390.334,81.1579 390.5,74.8246 391,68.5C 391.717,69.0442 392.217,69.7109 392.5,70.5 Z"/></g>
<g><path style="opacity:1" fill="#9f9162" d="M 35.5,63.5 C 35.5,65.8333 35.5,68.1667 35.5,70.5C 39.1667,70.5 42.8333,70.5 46.5,70.5C 42.7016,71.4834 38.7016,71.8168 34.5,71.5C 34.1936,68.6146 34.5269,65.9479 35.5,63.5 Z"/></g>
<g><path style="opacity:1" fill="#b8a54a" d="M 123.5,68.5 C 124.534,69.6871 125.867,70.5204 127.5,71C 126.299,71.9025 125.465,73.0692 125,74.5C 123.745,73.7894 122.579,72.956 121.5,72C 122.973,71.2904 123.64,70.1238 123.5,68.5 Z"/></g>
<g><path style="opacity:1" fill="#a6a7a8" d="M 275.5,66.5 C 276.468,68.6074 276.802,70.9407 276.5,73.5C 273.5,73.5 270.5,73.5 267.5,73.5C 269.948,72.5269 272.615,72.1936 275.5,72.5C 275.5,70.5 275.5,68.5 275.5,66.5 Z"/></g>
<g><path style="opacity:1" fill="#a1a1a3" d="M 244.5,73.5 C 244.5,75.8333 244.5,78.1667 244.5,80.5C 246.5,80.5 248.5,80.5 250.5,80.5C 250.5,78.1667 250.5,75.8333 250.5,73.5C 251.473,75.9479 251.806,78.6146 251.5,81.5C 248.833,81.5 246.167,81.5 243.5,81.5C 243.194,78.6146 243.527,75.9479 244.5,73.5 Z"/></g>
<g><path style="opacity:1" fill="#fefffe" d="M 244.5,73.5 C 246.5,73.5 248.5,73.5 250.5,73.5C 250.5,75.8333 250.5,78.1667 250.5,80.5C 248.5,80.5 246.5,80.5 244.5,80.5C 244.5,78.1667 244.5,75.8333 244.5,73.5 Z"/></g>
<g><path style="opacity:1" fill="#e4d871" d="M 67.5,76.5 C 64.9212,77.6562 62.2545,78.6562 59.5,79.5C 61.4923,77.6828 63.6589,76.0162 66,74.5C 67.0299,74.8361 67.5299,75.5028 67.5,76.5 Z"/></g>
<g><path style="opacity:1" fill="#b4b5b6" d="M 204.5,66.5 C 205.468,68.6074 205.802,70.9407 205.5,73.5C 202.5,73.5 199.5,73.5 196.5,73.5C 196.5,75.8333 196.5,78.1667 196.5,80.5C 200.042,80.1872 203.375,80.5206 206.5,81.5C 202.833,81.5 199.167,81.5 195.5,81.5C 195.5,78.5 195.5,75.5 195.5,72.5C 198.5,72.5 201.5,72.5 204.5,72.5C 204.5,70.5 204.5,68.5 204.5,66.5 Z"/></g>
<g><path style="opacity:1" fill="#afafb0" d="M 267.5,73.5 C 267.5,75.8333 267.5,78.1667 267.5,80.5C 271.042,80.1872 274.375,80.5206 277.5,81.5C 273.833,81.5 270.167,81.5 266.5,81.5C 266.194,78.6146 266.527,75.9479 267.5,73.5 Z"/></g>
<g><path style="opacity:1" fill="#b2b2b4" d="M 370.5,80.5 C 374.167,80.5 377.833,80.5 381.5,80.5C 381.802,83.0593 381.468,85.3926 380.5,87.5C 380.5,85.5 380.5,83.5 380.5,81.5C 376.958,81.8128 373.625,81.4794 370.5,80.5 Z"/></g>
<g><path style="opacity:1" fill="#b7a65a" d="M 120.5,81.5 C 122.377,82.6591 122.877,84.3258 122,86.5C 121,85.1667 120,85.1667 119,86.5C 118.691,85.2341 118.191,84.0674 117.5,83C 118.737,82.7679 119.737,82.2679 120.5,81.5 Z"/></g>
<g><path style="opacity:1" fill="#c4b34c" d="M 67.5,76.5 C 65.3936,79.0546 63.0602,81.3879 60.5,83.5C 60.9186,84.6721 61.5853,85.6721 62.5,86.5C 64.6499,84.8509 66.6499,83.0176 68.5,81C 71.0915,80.6992 71.9248,81.8659 71,84.5C 68.8333,86 66.6667,87.5 64.5,89C 65.4601,90.4194 66.2935,91.9194 67,93.5C 69.9162,89.9652 73.4162,88.2985 77.5,88.5C 73.9876,92.1774 70.1543,95.5107 66,98.5C 62.0448,93.4225 58.2114,88.2558 54.5,83C 55.7893,81.1978 57.4559,80.0312 59.5,79.5C 62.2545,78.6562 64.9212,77.6562 67.5,76.5 Z"/></g>
<g><path style="opacity:1" fill="#bba843" d="M 135.5,81.5 C 138.508,82.4202 141.341,83.7535 144,85.5C 145.539,89.8052 144.206,92.4718 140,93.5C 137.008,92.755 134.174,91.5883 131.5,90C 132.108,89.1301 132.941,88.6301 134,88.5C 136.705,89.9391 139.538,90.9391 142.5,91.5C 142.657,90.1266 142.49,88.7932 142,87.5C 139.437,86.259 136.937,84.9256 134.5,83.5C 134.863,82.8165 135.196,82.1499 135.5,81.5 Z"/></g>
<g><path style="opacity:1" fill="#bfad4c" d="M 110.5,89.5 C 111.718,90.7311 113.051,91.8978 114.5,93C 113.773,94.3988 113.273,95.8988 113,97.5C 111.542,96.2532 110.042,96.2532 108.5,97.5C 108.55,96.1524 108.217,94.6524 107.5,93C 108.448,92.5172 109.448,92.3505 110.5,92.5C 110.5,91.5 110.5,90.5 110.5,89.5 Z"/></g>
<g><path style="opacity:1" fill="#bca947" d="M 131.5,81.5 C 127.567,93.766 119.567,102.099 107.5,106.5C 109.297,105.607 110.63,104.274 111.5,102.5C 118.997,98.0019 124.33,91.6686 127.5,83.5C 128.833,82.8333 130.167,82.1667 131.5,81.5 Z"/></g>
<g><path style="opacity:1" fill="#938148" d="M 30.5,94.5 C 30.0269,95.9063 29.0269,96.573 27.5,96.5C 27.9731,95.0937 28.9731,94.427 30.5,94.5 Z"/></g>
<g><path style="opacity:1" fill="#c2b047" d="M 55.5,105.5 C 54.4168,105.539 53.4168,105.873 52.5,106.5C 51.0603,105.048 49.3936,104.048 47.5,103.5C 45.629,103.141 44.129,102.141 43,100.5C 42.8333,100.833 42.6667,101.167 42.5,101.5C 45.0222,104.188 47.3555,107.021 49.5,110C 48.646,111.022 47.646,111.855 46.5,112.5C 42.6584,107.822 38.9917,102.988 35.5,98C 36,96.1667 37.1667,95 39,94.5C 42.4912,96.5814 45.8245,98.9147 49,101.5C 48.472,97.5744 47.3053,93.741 45.5,90C 46.7054,88.4621 48.2054,87.2954 50,86.5C 54.0464,90.8854 57.8797,95.5521 61.5,100.5C 60.8333,101.833 59.8333,102.833 58.5,103.5C 51.9273,93.9532 50.9273,94.6199 55.5,105.5 Z"/></g>
<g><path style="opacity:1" fill="#c1b061" d="M 85.5,96.5 C 90.5376,98.4098 90.3709,100.41 85,102.5C 84.6905,101.234 84.1905,100.067 83.5,99C 84.756,98.5831 85.4226,97.7498 85.5,96.5 Z"/></g>
<g><path style="opacity:1" fill="#c0ad45" d="M 128.5,94.5 C 131.454,96.2805 134.287,98.2805 137,100.5C 137.563,101.725 137.23,102.725 136,103.5C 132.833,101 129.667,98.5 126.5,96C 127.416,95.7216 128.082,95.2216 128.5,94.5 Z"/></g>
<g><path style="opacity:1" fill="#c5b465" d="M 97.5,97.5 C 101.69,97.6459 102.524,99.3126 100,102.5C 99,101.167 98,101.167 97,102.5C 96.6905,101.234 96.1905,100.067 95.5,99C 96.4158,98.7216 97.0825,98.2216 97.5,97.5 Z"/></g>
<g><path style="opacity:1" fill="#beab41" d="M 27.5,96.5 C 26.2003,97.601 25.7003,98.9343 26,100.5C 31.3466,107.21 36.1799,114.21 40.5,121.5C 38.7839,121.371 37.1172,121.038 35.5,120.5C 30.1667,113.167 24.8333,105.833 19.5,98.5C 20.6948,98.6775 21.8615,99.0109 23,99.5C 24.8261,98.9896 24.9928,98.1562 23.5,97C 24.7932,96.51 26.1266,96.3433 27.5,96.5 Z"/></g>
<g><path style="opacity:1" fill="#baa743" d="M 150.5,74.5 C 151.5,74.5 152.5,74.5 153.5,74.5C 150.316,99.0095 137.316,116.176 114.5,126C 102.585,130.59 90.585,131.423 78.5,128.5C 86.9032,129.134 94.9032,128.467 102.5,126.5C 106.571,125.644 110.571,124.477 114.5,123C 135.878,113.789 147.878,97.6224 150.5,74.5 Z"/></g>
<g><path style="opacity:1" fill="#907b31" d="M 47.5,103.5 C 49.3936,104.048 51.0603,105.048 52.5,106.5C 53.4168,105.873 54.4168,105.539 55.5,105.5C 52.2078,108.346 49.5411,107.679 47.5,103.5 Z"/></g>
<g><path style="opacity:1" fill="#a7923e" d="M 74.5,106.5 C 83.3835,108.262 92.3835,108.928 101.5,108.5C 92.268,111.449 83.268,110.783 74.5,106.5 Z"/></g>
<g><path style="opacity:1" fill="#85868a" d="M 222.5,108.5 C 223.978,108.238 225.311,108.571 226.5,109.5C 225.557,114.1 225.223,118.767 225.5,123.5C 227.92,123.708 230.253,123.374 232.5,122.5C 233.386,123.325 233.719,124.325 233.5,125.5C 229.774,125.823 226.107,125.489 222.5,124.5C 223.782,119.168 223.782,113.834 222.5,108.5 Z"/></g>
<g><path style="opacity:1" fill="#c2af48" d="M 123.5,100.5 C 126.416,102.82 128.75,105.654 130.5,109C 130.15,110.257 129.483,110.591 128.5,110C 127.789,108.745 126.956,107.579 126,106.5C 125.86,108.256 126.36,109.922 127.5,111.5C 127.167,112.5 126.5,113.167 125.5,113.5C 124.019,112.52 122.685,111.353 121.5,110C 120.833,109.333 120.167,109.333 119.5,110C 121.019,111.351 122.352,112.851 123.5,114.5C 123.192,115.308 122.692,115.975 122,116.5C 119.64,113.64 117.473,110.64 115.5,107.5C 117.359,104.981 119.359,104.981 121.5,107.5C 120.89,104.972 121.557,102.639 123.5,100.5 Z"/></g>
<g><path style="opacity:1" fill="#88898c" d="M 239.5,111.5 C 243.389,111.776 247.056,112.109 250.5,112.5C 249.167,116.5 249.167,120.5 250.5,124.5C 247.024,125.059 243.357,125.225 239.5,125C 234.221,120.503 234.221,116.003 239.5,111.5 Z"/></g>
<g><path style="opacity:1" fill="#929397" d="M 255.5,111.5 C 259.468,111.262 263.468,111.762 267.5,113C 268.701,113.903 269.535,115.069 270,116.5C 270.27,119.224 270.77,121.891 271.5,124.5C 269.833,125.833 268.167,125.833 266.5,124.5C 267.575,121.562 267.741,118.562 267,115.5C 264.333,112.833 261.667,112.833 259,115.5C 258.259,118.562 258.425,121.562 259.5,124.5C 257.833,125.833 256.167,125.833 254.5,124.5C 255.386,120.021 255.72,115.688 255.5,111.5 Z"/></g>
<g><path style="opacity:1" fill="#8a8b8f" d="M 296.5,111.5 C 300.389,111.776 304.056,112.109 307.5,112.5C 306.714,117.781 306.214,123.115 306,128.5C 300.942,132.92 296.775,132.253 293.5,126.5C 293.833,126.167 294.167,125.833 294.5,125.5C 296.934,128.124 299.934,128.957 303.5,128C 304.731,126.817 304.731,125.651 303.5,124.5C 295.855,126.356 292.355,123.356 293,115.5C 294.376,114.295 295.542,112.962 296.5,111.5 Z"/></g>
<g><path style="opacity:1" fill="#86878b" d="M 369.5,111.5 C 373.516,111.242 377.516,111.742 381.5,113C 383.025,116.66 384.025,120.493 384.5,124.5C 383.167,125.833 381.833,125.833 380.5,124.5C 381.575,121.562 381.741,118.562 381,115.5C 377.626,112.595 374.626,112.928 372,116.5C 371.272,119.23 371.438,121.897 372.5,124.5C 371.167,125.833 369.833,125.833 368.5,124.5C 369.386,120.021 369.72,115.688 369.5,111.5 Z"/></g>
<g><path style="opacity:1" fill="#909094" d="M 314.5,111.5 C 318.656,111.926 322.656,112.26 326.5,112.5C 325.167,116.5 325.167,120.5 326.5,124.5C 323.526,124.547 320.526,124.881 317.5,125.5C 309.567,122.428 308.567,117.761 314.5,111.5 Z"/></g>
<g><path style="opacity:1" fill="#8a8b8f" d="M 353.5,111.5 C 357.389,111.776 361.056,112.109 364.5,112.5C 363.167,116.5 363.167,120.5 364.5,124.5C 361.904,124.285 359.237,124.619 356.5,125.5C 350.602,124.72 348.435,121.387 350,115.5C 350.69,113.65 351.856,112.316 353.5,111.5 Z"/></g>
<g><path style="opacity:1" fill="#8c8d91" d="M 278.5,111.5 C 282.365,111.77 286.032,112.103 289.5,112.5C 288.717,117.447 288.217,122.447 288,127.5C 283.601,132.886 279.434,132.719 275.5,127C 275.833,126.5 276.167,126 276.5,125.5C 278.441,128.334 281.107,129.168 284.5,128C 286.211,126.867 286.711,125.367 286,123.5C 277.174,127.229 273.507,124.229 275,114.5C 276.145,113.364 277.312,112.364 278.5,111.5 Z"/></g>
<g><path style="opacity:1" fill="#f7f7f7" d="M 240.5,113.5 C 245.987,112.962 248.153,115.295 247,120.5C 244.048,124.482 241.048,124.482 238,120.5C 237.333,119.167 237.333,117.833 238,116.5C 239.045,115.627 239.878,114.627 240.5,113.5 Z"/></g>
<g><path style="opacity:1" fill="#f5f5f6" d="M 279.5,113.5 C 286.821,114.319 288.154,117.486 283.5,123C 277.498,123.993 275.332,121.493 277,115.5C 277.995,114.934 278.828,114.267 279.5,113.5 Z"/></g>
<g><path style="opacity:1" fill="#f7f8f8" d="M 297.5,113.5 C 302.665,113.162 304.831,115.495 304,120.5C 301.048,124.482 298.048,124.482 295,120.5C 294.333,119.167 294.333,117.833 295,116.5C 296.045,115.627 296.878,114.627 297.5,113.5 Z"/></g>
<g><path style="opacity:1" fill="#f7f7f8" d="M 315.5,113.5 C 322.628,113.706 324.294,116.873 320.5,123C 314.498,123.993 312.332,121.493 314,115.5C 314.717,114.956 315.217,114.289 315.5,113.5 Z"/></g>
<g><path style="opacity:1" fill="#f9f9f9" d="M 354.5,113.5 C 361.821,114.319 363.154,117.486 358.5,123C 351.075,122.484 349.742,119.318 354.5,113.5 Z"/></g>
<g><path style="opacity:1" fill="#baa53f" d="M 75.5,110.5 C 78.0667,111.475 80.7334,112.142 83.5,112.5C 84.231,117.754 81.8977,119.921 76.5,119C 75.9288,120.205 75.2621,121.372 74.5,122.5C 73.6919,122.192 73.0253,121.692 72.5,121C 73.4352,117.497 74.4352,113.997 75.5,110.5 Z"/></g>
<g><path style="opacity:1" fill="#f6f1de" d="M 77.5,113.5 C 80.5,113.167 81.8333,114.5 81.5,117.5C 77.5287,118.204 76.1954,116.871 77.5,113.5 Z"/></g>
<g><path style="opacity:1" fill="#8e8e92" d="M 330.5,111.5 C 334.014,111.764 337.681,111.931 341.5,112C 342.667,113.167 343.833,114.333 345,115.5C 345.256,118.557 345.756,121.557 346.5,124.5C 345.167,125.833 343.833,125.833 342.5,124.5C 344.915,119.008 343.415,115.342 338,113.5C 336.289,113.439 334.956,114.106 334,115.5C 333.259,118.562 333.425,121.562 334.5,124.5C 332.833,125.833 331.167,125.833 329.5,124.5C 330.439,120.235 330.772,115.902 330.5,111.5 Z"/></g>
<g><path style="opacity:1" fill="#c2b04c" d="M 108.5,109.5 C 109.552,109.351 110.552,109.517 111.5,110C 110.109,111.02 108.609,111.853 107,112.5C 106.251,113.635 106.417,114.635 107.5,115.5C 109.059,114.926 110.559,114.26 112,113.5C 112.167,113.833 112.333,114.167 112.5,114.5C 109.017,115.057 107.35,117.057 107.5,120.5C 109.677,120.414 111.677,119.747 113.5,118.5C 113.833,118.833 114.167,119.167 114.5,119.5C 111.77,121.371 108.936,122.038 106,121.5C 105.127,118.382 103.961,115.382 102.5,112.5C 104.594,111.482 106.594,110.482 108.5,109.5 Z"/></g>
<g><path style="opacity:1" fill="#c0ad49" d="M 88.5,113.5 C 91.8333,113.5 95.1667,113.5 98.5,113.5C 98.7529,115.827 98.0863,117.827 96.5,119.5C 97.5,120.833 98.5,122.167 99.5,123.5C 98.635,124.583 97.635,124.749 96.5,124C 95.2744,122.365 93.941,120.865 92.5,119.5C 91.5481,121.045 91.2148,122.712 91.5,124.5C 90.5,124.5 89.5,124.5 88.5,124.5C 88.5,120.833 88.5,117.167 88.5,113.5 Z"/></g>
<g><path style="opacity:1" fill="#fcfbf4" d="M 91.5,115.5 C 92.8333,115.5 94.1667,115.5 95.5,115.5C 95.5,116.5 95.5,117.5 95.5,118.5C 94.1667,118.5 92.8333,118.5 91.5,118.5C 91.5,117.5 91.5,116.5 91.5,115.5 Z"/></g>
<g><path style="opacity:1" fill="#a89434" d="M 58.5,120.5 C 56.4287,118.9 54.0953,118.4 51.5,119C 48.247,121.874 44.747,124.374 41,126.5C 38.9494,124.759 37.1161,122.759 35.5,120.5C 37.1172,121.038 38.7839,121.371 40.5,121.5C 41.1667,121.5 41.8333,121.5 42.5,121.5C 44.5582,120.067 46.8915,119.4 49.5,119.5C 49.5,118.5 49.5,117.5 49.5,116.5C 53.4157,115.961 56.4157,117.294 58.5,120.5 Z"/></g>
<g><path style="opacity:1" fill="#9b863a" d="M 63.5,123.5 C 68.5166,124.393 73.1832,126.06 77.5,128.5C 72.3619,127.921 67.6953,126.254 63.5,123.5 Z"/></g>
<g><path style="opacity:1" fill="#cab84c" d="M 83.5,91.5 C 82.6473,93.8927 80.9806,95.226 78.5,95.5C 78.5,96.5 78.5,97.5 78.5,98.5C 77.2842,100.451 75.6175,101.951 73.5,103C 86.1926,108.911 98.8593,108.745 111.5,102.5C 110.63,104.274 109.297,105.607 107.5,106.5C 105.898,108.074 103.898,108.741 101.5,108.5C 92.3835,108.928 83.3835,108.262 74.5,106.5C 73.3052,106.322 72.1385,105.989 71,105.5C 65.6181,108.211 60.7848,111.711 56.5,116C 70.3495,125.804 85.6828,129.304 102.5,126.5C 94.9032,128.467 86.9032,129.134 78.5,128.5C 78.1667,128.5 77.8333,128.5 77.5,128.5C 73.1832,126.06 68.5166,124.393 63.5,123.5C 61.5659,122.89 59.8993,121.89 58.5,120.5C 56.4157,117.294 53.4157,115.961 49.5,116.5C 49.5,117.5 49.5,118.5 49.5,119.5C 46.8915,119.4 44.5582,120.067 42.5,121.5C 55.6257,110.77 69.2924,100.77 83.5,91.5 Z"/></g>
</svg>
